# xmcd CD database file
#
# Track frame offsets:
#	150
#	22315
#	46462
#	54415
#	72115
#	128319
#	137115
#	150574
#	162238
#	197982
#	227678
#	249172
#	278168
#
# Disc length: 4489 seconds
#
# Revision: 0
# Processed by: cddbd v1.5.2PL0 Copyright (c) Steve Scherf et al.
# Submitted via: CDex 1.70beta2
#
DISCID=ae11870d
DTITLE=Wecker, Konstantin, Peter Sodann and Rolf Hochhuth - Befreit!
DYEAR=2005
DGENRE=Lieder
TTITLE0=Die weiﬂe Rose
TTITLE1=Hitler-Wirtschaft
TTITLE2=Drei Schwestern Kafkas
TTITLE3=Bella Ciao
TTITLE4=Der Stellvertreter
TTITLE5=Warum kommt ihr erst jetzt
TTITLE6=Friedenswirtschaft
TTITLE7=Das Weiche Wasser II
TTITLE8=Wir sind verdammt, uns zu vertragen
TTITLE9=Willy 5
TTITLE10=Rede von der Antikriegsdemo 15.02.2003
TTITLE11=Sag mir, wo die Blumen sind
TTITLE12=Video - Sag mir, wo die Blumen sind
EXTD=YEAR: 2005
EXTT0=
EXTT1=
EXTT2=
EXTT3=
EXTT4=
EXTT5=
EXTT6=
EXTT7=
EXTT8=
EXTT9=
EXTT10=
EXTT11=
EXTT12=
PLAYORDER=
